<svg width="64" height="32" viewBox="0 0 64 32" fill="none" xmlns="http://www.w3.org/2000/svg">
<path d="M62 15.7031L52.8083 24.0297L49.4658 21.8165L46.4018 24.0297L42.7809 21.8165L39.7169 24.0297L36.653 21.8165L34.1461 24.0297L31.0822 21.4276H27.347C26.7947 21.4276 26.3523 21.8765 26.307 22.4269C25.9184 27.1398 22.7559 29.3002 19.105 30.2746C15.2054 31.3154 10.7488 31.3154 7.40638 29.7542C4.06391 28.193 2.94977 26.6318 1.8356 24.0297C0.721438 21.4276 0.721493 11.0193 1.8356 7.37646C2.94041 3.76401 5.50612 2.36915 7.35969 1.66945C7.39111 1.65759 7.42185 1.64784 7.45447 1.63987C7.91345 1.52766 11.6307 0.679762 17.4338 1.13154C23.4275 1.59815 25.6893 5.69046 26.2268 8.53228C26.3246 9.04948 26.756 9.45814 27.2824 9.45814H54.9206C55.1741 9.45814 55.4181 9.55437 55.6033 9.72739L62 15.7031ZM62 15.7031H26.347M11.863 12.0602C13.5342 12.0602 15.2055 13.4581 15.2055 15.1826C15.2055 16.9071 13.709 18.3051 11.863 18.3051C10.017 18.3051 8.52054 16.9071 8.52054 15.1826C8.52054 13.4581 10.1918 12.0602 11.863 12.0602Z" stroke="white" stroke-width="1.7"/>
</svg>
