<svg width="136" height="34" viewBox="0 0 136 34" fill="none" xmlns="http://www.w3.org/2000/svg">
<path d="M28.435 3.95C29.1583 4.09 29.695 4.335 30.045 4.685C30.4183 5.035 30.605 5.44333 30.605 5.91C30.605 6.68 30.3833 7.24 29.94 7.59C29.52 7.94 28.8433 8.08 27.91 8.01C25.81 7.84667 24.165 7.74167 22.975 7.695C21.8083 7.625 20.2683 7.57833 18.355 7.555C17.4917 11.8483 16.6983 16.165 15.975 20.505C15.7183 22.0917 15.45 23.935 15.17 26.035C14.89 28.1117 14.7033 29.7917 14.61 31.075C14.5633 31.7517 14.2833 32.2767 13.77 32.65C13.2567 33 12.6383 33.175 11.915 33.175C11.145 33.175 10.55 32.9883 10.13 32.615C9.71 32.2417 9.5 31.7517 9.5 31.145C9.5 30.585 9.58167 29.6633 9.745 28.38C9.93167 27.0733 10.1417 25.7083 10.375 24.285C10.6317 22.8617 10.83 21.625 10.97 20.575C11.2267 18.8017 11.5183 17.04 11.845 15.29C12.1717 13.54 12.4983 11.8833 12.825 10.32C12.895 9.97 12.9767 9.57333 13.07 9.13C13.1633 8.66333 13.2683 8.15 13.385 7.59C11.0983 7.66 9.30167 7.84667 7.995 8.15C6.68833 8.45333 5.755 8.885 5.195 9.445C4.65833 9.98167 4.39 10.6817 4.39 11.545C4.39 12.3383 4.62333 13.0967 5.09 13.82C5.18333 13.9833 5.23 14.1583 5.23 14.345C5.23 14.7883 4.96167 15.2083 4.425 15.605C3.91167 15.9783 3.375 16.165 2.815 16.165C2.41833 16.165 2.09167 16.0483 1.835 15.815C1.36833 15.4183 0.983333 14.8583 0.68 14.135C0.376667 13.3883 0.225 12.5483 0.225 11.615C0.225 9.63167 0.866667 8.045 2.15 6.855C3.45667 5.64167 5.42833 4.755 8.065 4.195C10.725 3.635 14.1317 3.355 18.285 3.355C20.8517 3.355 22.8933 3.40166 24.41 3.495C25.95 3.58833 27.2917 3.74 28.435 3.95ZM26.0739 33.175C24.6272 33.175 23.4722 32.65 22.6089 31.6C21.7455 30.55 21.3139 29.1733 21.3139 27.47C21.3139 25.6033 21.7455 23.8417 22.6089 22.185C23.4722 20.505 24.6155 19.1633 26.0389 18.16C27.4855 17.1333 29.0139 16.62 30.6239 16.62C31.1372 16.62 31.4755 16.725 31.6389 16.935C31.8255 17.1217 31.9772 17.4717 32.0939 17.985C32.5839 17.8917 33.0972 17.845 33.6339 17.845C34.7772 17.845 35.3489 18.2533 35.3489 19.07C35.3489 19.56 35.1739 20.7267 34.8239 22.57C34.2872 25.2533 34.0189 27.12 34.0189 28.17C34.0189 28.52 34.1005 28.8 34.2639 29.01C34.4505 29.22 34.6839 29.325 34.9639 29.325C35.4072 29.325 35.9439 29.045 36.5739 28.485C37.2039 27.9017 38.0555 26.9683 39.1289 25.685C39.4089 25.3583 39.7239 25.195 40.0739 25.195C40.3772 25.195 40.6105 25.335 40.7739 25.615C40.9605 25.895 41.0539 26.28 41.0539 26.77C41.0539 27.7033 40.8322 28.4267 40.3889 28.94C39.4322 30.13 38.4172 31.1333 37.3439 31.95C36.2705 32.7667 35.2322 33.175 34.2289 33.175C33.4589 33.175 32.7472 32.9183 32.0939 32.405C31.4639 31.8683 30.9855 31.145 30.6589 30.235C29.4455 32.195 27.9172 33.175 26.0739 33.175ZM27.3339 29.64C27.8472 29.64 28.3372 29.3367 28.8039 28.73C29.2705 28.1233 29.6089 27.3183 29.8189 26.315L31.1139 19.875C30.1339 19.8983 29.2239 20.2717 28.3839 20.995C27.5672 21.695 26.9139 22.6283 26.4239 23.795C25.9339 24.9617 25.6889 26.1983 25.6889 27.505C25.6889 28.2283 25.8289 28.765 26.1089 29.115C26.4122 29.465 26.8205 29.64 27.3339 29.64ZM42.7943 14.38C41.8143 14.38 41.0793 14.1583 40.5893 13.715C40.0993 13.2483 39.8543 12.6067 39.8543 11.79C39.8543 10.9733 40.1693 10.2967 40.7993 9.76C41.4526 9.2 42.2576 8.92 43.2143 8.92C44.0776 8.92 44.7776 9.13 45.3143 9.55C45.851 9.97 46.1193 10.565 46.1193 11.335C46.1193 12.2683 45.816 13.015 45.2093 13.575C44.6026 14.1117 43.7976 14.38 42.7943 14.38ZM42.5143 33.175C40.9976 33.175 39.8893 32.6383 39.1893 31.565C38.5126 30.4917 38.1743 29.0683 38.1743 27.295C38.1743 26.245 38.3026 24.9033 38.5593 23.27C38.8393 21.6133 39.1893 20.0733 39.6093 18.65C39.8193 17.9033 40.0993 17.39 40.4493 17.11C40.7993 16.83 41.3593 16.69 42.1293 16.69C43.3193 16.69 43.9143 17.0867 43.9143 17.88C43.9143 18.4633 43.6926 19.8167 43.2493 21.94C42.6893 24.5067 42.4093 26.245 42.4093 27.155C42.4093 27.855 42.5026 28.3917 42.6893 28.765C42.876 29.1383 43.191 29.325 43.6343 29.325C44.0543 29.325 44.5793 29.0333 45.2093 28.45C45.8393 27.8667 46.6793 26.945 47.7293 25.685C48.0093 25.3583 48.3243 25.195 48.6743 25.195C48.9776 25.195 49.211 25.335 49.3743 25.615C49.561 25.895 49.6543 26.28 49.6543 26.77C49.6543 27.7033 49.4326 28.4267 48.9893 28.94C46.6793 31.7633 44.521 33.175 42.5143 33.175ZM60.0876 25.195C60.3909 25.195 60.6242 25.335 60.7876 25.615C60.9742 25.895 61.0676 26.28 61.0676 26.77C61.0676 27.7033 60.8459 28.4267 60.4026 28.94C59.3992 30.1767 58.3026 31.1917 57.1126 31.985C55.9459 32.7783 54.6159 33.175 53.1226 33.175C51.0692 33.175 49.5409 32.2417 48.5376 30.375C47.5576 28.5083 47.0676 26.0933 47.0676 23.13C47.0676 20.2833 47.4292 17.04 48.1526 13.4C48.8992 9.76 49.9842 6.63333 51.4076 4.02C52.8542 1.40666 54.5692 0.099998 56.5526 0.099998C57.6726 0.099998 58.5476 0.624998 59.1776 1.675C59.8309 2.70167 60.1576 4.18333 60.1576 6.12C60.1576 8.89667 59.3876 12.1167 57.8476 15.78C56.3076 19.4433 54.2192 23.0717 51.5826 26.665C51.7459 27.6217 52.0142 28.31 52.3876 28.73C52.7609 29.1267 53.2509 29.325 53.8576 29.325C54.8142 29.325 55.6542 29.0567 56.3776 28.52C57.1009 27.96 58.0226 27.015 59.1426 25.685C59.4226 25.3583 59.7376 25.195 60.0876 25.195ZM55.7826 3.565C55.2459 3.565 54.6392 4.53333 53.9626 6.47C53.2859 8.40667 52.6909 10.81 52.1776 13.68C51.6642 16.55 51.3842 19.3033 51.3376 21.94C52.9942 19.21 54.3126 16.48 55.2926 13.75C56.2726 10.9967 56.7626 8.48833 56.7626 6.225C56.7626 4.45167 56.4359 3.565 55.7826 3.565ZM85.9936 3.95C86.7169 4.09 87.2536 4.335 87.6036 4.685C87.9769 5.035 88.1636 5.44333 88.1636 5.91C88.1636 6.68 87.9419 7.24 87.4986 7.59C87.0786 7.94 86.4019 8.08 85.4686 8.01C83.3686 7.84667 81.7236 7.74167 80.5336 7.695C79.3669 7.625 77.8269 7.57833 75.9136 7.555C75.0503 11.8483 74.2569 16.165 73.5336 20.505C73.2769 22.0917 73.0086 23.935 72.7286 26.035C72.4486 28.1117 72.2619 29.7917 72.1686 31.075C72.1219 31.7517 71.8419 32.2767 71.3286 32.65C70.8153 33 70.1969 33.175 69.4736 33.175C68.7036 33.175 68.1086 32.9883 67.6886 32.615C67.2686 32.2417 67.0586 31.7517 67.0586 31.145C67.0586 30.585 67.1403 29.6633 67.3036 28.38C67.4903 27.0733 67.7003 25.7083 67.9336 24.285C68.1903 22.8617 68.3886 21.625 68.5286 20.575C68.7853 18.8017 69.0769 17.04 69.4036 15.29C69.7303 13.54 70.0569 11.8833 70.3836 10.32C70.4536 9.97 70.5353 9.57333 70.6286 9.13C70.7219 8.66333 70.8269 8.15 70.9436 7.59C68.6569 7.66 66.8603 7.84667 65.5536 8.15C64.2469 8.45333 63.3136 8.885 62.7536 9.445C62.2169 9.98167 61.9486 10.6817 61.9486 11.545C61.9486 12.3383 62.1819 13.0967 62.6486 13.82C62.7419 13.9833 62.7886 14.1583 62.7886 14.345C62.7886 14.7883 62.5203 15.2083 61.9836 15.605C61.4703 15.9783 60.9336 16.165 60.3736 16.165C59.9769 16.165 59.6503 16.0483 59.3936 15.815C58.9269 15.4183 58.5419 14.8583 58.2386 14.135C57.9353 13.3883 57.7836 12.5483 57.7836 11.615C57.7836 9.63167 58.4253 8.045 59.7086 6.855C61.0153 5.64167 62.9869 4.755 65.6236 4.195C68.2836 3.635 71.6903 3.355 75.8436 3.355C78.4103 3.355 80.4519 3.40166 81.9686 3.495C83.5086 3.58833 84.8503 3.74 85.9936 3.95ZM84.0683 33.175C83.1817 33.175 82.5517 32.7083 82.1783 31.775C81.8283 30.8417 81.6533 29.3483 81.6533 27.295C81.6533 24.2617 82.085 21.38 82.9483 18.65C83.1583 17.9733 83.4967 17.4833 83.9633 17.18C84.4533 16.8533 85.13 16.69 85.9933 16.69C86.46 16.69 86.7867 16.7483 86.9733 16.865C87.16 16.9817 87.2533 17.2033 87.2533 17.53C87.2533 17.9033 87.0783 18.7433 86.7283 20.05C86.495 20.9833 86.3083 21.8 86.1683 22.5C86.0283 23.2 85.9117 24.0633 85.8183 25.09C86.5883 23.0833 87.4517 21.45 88.4083 20.19C89.365 18.93 90.2983 18.0317 91.2083 17.495C92.1417 16.9583 92.9933 16.69 93.7633 16.69C95.28 16.69 96.0383 17.4483 96.0383 18.965C96.0383 19.2683 95.9333 20.0033 95.7233 21.17C95.5367 22.1033 95.4433 22.6867 95.4433 22.92C95.4433 23.7367 95.735 24.145 96.3183 24.145C96.9717 24.145 97.8117 23.6317 98.8383 22.605C99.1417 22.3017 99.4567 22.15 99.7833 22.15C100.087 22.15 100.32 22.29 100.483 22.57C100.67 22.8267 100.763 23.1767 100.763 23.62C100.763 24.4833 100.53 25.16 100.063 25.65C99.41 26.3267 98.64 26.91 97.7533 27.4C96.89 27.8667 95.9683 28.1 94.9883 28.1C93.7517 28.1 92.8067 27.785 92.1533 27.155C91.5233 26.525 91.2083 25.6733 91.2083 24.6C91.2083 24.25 91.2433 23.9 91.3133 23.55C91.36 23.0833 91.3833 22.7683 91.3833 22.605C91.3833 22.2317 91.255 22.045 90.9983 22.045C90.6483 22.045 90.1817 22.4417 89.5983 23.235C89.0383 24.005 88.4783 25.0317 87.9183 26.315C87.3583 27.5983 86.9033 28.9517 86.5533 30.375C86.2967 31.4717 85.9933 32.2183 85.6433 32.615C85.3167 32.9883 84.7917 33.175 84.0683 33.175ZM101.816 33.175C100.369 33.175 99.2144 32.65 98.3511 31.6C97.4877 30.55 97.0561 29.1733 97.0561 27.47C97.0561 25.6033 97.4877 23.8417 98.3511 22.185C99.2144 20.505 100.358 19.1633 101.781 18.16C103.228 17.1333 104.756 16.62 106.366 16.62C106.879 16.62 107.218 16.725 107.381 16.935C107.568 17.1217 107.719 17.4717 107.836 17.985C108.326 17.8917 108.839 17.845 109.376 17.845C110.519 17.845 111.091 18.2533 111.091 19.07C111.091 19.56 110.916 20.7267 110.566 22.57C110.029 25.2533 109.761 27.12 109.761 28.17C109.761 28.52 109.843 28.8 110.006 29.01C110.193 29.22 110.426 29.325 110.706 29.325C111.149 29.325 111.686 29.045 112.316 28.485C112.946 27.9017 113.798 26.9683 114.871 25.685C115.151 25.3583 115.466 25.195 115.816 25.195C116.119 25.195 116.353 25.335 116.516 25.615C116.703 25.895 116.796 26.28 116.796 26.77C116.796 27.7033 116.574 28.4267 116.131 28.94C115.174 30.13 114.159 31.1333 113.086 31.95C112.013 32.7667 110.974 33.175 109.971 33.175C109.201 33.175 108.489 32.9183 107.836 32.405C107.206 31.8683 106.728 31.145 106.401 30.235C105.188 32.195 103.659 33.175 101.816 33.175ZM103.076 29.64C103.589 29.64 104.079 29.3367 104.546 28.73C105.013 28.1233 105.351 27.3183 105.561 26.315L106.856 19.875C105.876 19.8983 104.966 20.2717 104.126 20.995C103.309 21.695 102.656 22.6283 102.166 23.795C101.676 24.9617 101.431 26.1983 101.431 27.505C101.431 28.2283 101.571 28.765 101.851 29.115C102.154 29.465 102.563 29.64 103.076 29.64ZM118.536 14.38C117.556 14.38 116.821 14.1583 116.331 13.715C115.841 13.2483 115.596 12.6067 115.596 11.79C115.596 10.9733 115.911 10.2967 116.541 9.76C117.195 9.2 118 8.92 118.956 8.92C119.82 8.92 120.52 9.13 121.056 9.55C121.593 9.97 121.861 10.565 121.861 11.335C121.861 12.2683 121.558 13.015 120.951 13.575C120.345 14.1117 119.54 14.38 118.536 14.38ZM118.256 33.175C116.74 33.175 115.631 32.6383 114.931 31.565C114.255 30.4917 113.916 29.0683 113.916 27.295C113.916 26.245 114.045 24.9033 114.301 23.27C114.581 21.6133 114.931 20.0733 115.351 18.65C115.561 17.9033 115.841 17.39 116.191 17.11C116.541 16.83 117.101 16.69 117.871 16.69C119.061 16.69 119.656 17.0867 119.656 17.88C119.656 18.4633 119.435 19.8167 118.991 21.94C118.431 24.5067 118.151 26.245 118.151 27.155C118.151 27.855 118.245 28.3917 118.431 28.765C118.618 29.1383 118.933 29.325 119.376 29.325C119.796 29.325 120.321 29.0333 120.951 28.45C121.581 27.8667 122.421 26.945 123.471 25.685C123.751 25.3583 124.066 25.195 124.416 25.195C124.72 25.195 124.953 25.335 125.116 25.615C125.303 25.895 125.396 26.28 125.396 26.77C125.396 27.7033 125.175 28.4267 124.731 28.94C122.421 31.7633 120.263 33.175 118.256 33.175ZM132.68 28.065C132.936 27.8317 133.193 27.715 133.45 27.715C133.73 27.715 133.951 27.8783 134.115 28.205C134.301 28.5083 134.395 28.8817 134.395 29.325C134.395 30.305 134.045 31.0867 133.345 31.67C132.131 32.6733 130.755 33.175 129.215 33.175C126.998 33.175 125.376 32.2533 124.35 30.41C123.323 28.5433 122.81 26.1167 122.81 23.13C122.81 20.2833 123.171 17.04 123.895 13.4C124.641 9.76 125.726 6.63333 127.15 4.02C128.596 1.40666 130.311 0.099998 132.295 0.099998C133.415 0.099998 134.29 0.624998 134.92 1.675C135.573 2.70167 135.9 4.18333 135.9 6.12C135.9 8.89667 135.13 12.1167 133.59 15.78C132.073 19.4433 129.996 23.06 127.36 26.63C127.523 27.5867 127.815 28.275 128.235 28.695C128.655 29.115 129.226 29.325 129.95 29.325C130.346 29.325 130.79 29.2083 131.28 28.975C131.793 28.7417 132.26 28.4383 132.68 28.065ZM131.525 3.565C130.988 3.565 130.381 4.53333 129.705 6.47C129.028 8.40667 128.433 10.81 127.92 13.68C127.406 16.55 127.126 19.3033 127.08 21.94C128.736 19.21 130.055 16.48 131.035 13.75C132.015 10.9967 132.505 8.48833 132.505 6.225C132.505 4.45167 132.178 3.565 131.525 3.565Z" fill="white"/>
</svg>
